<?xml version="1.0" encoding="utf-8"?>
<!-- Generator: Adobe Illustrator 19.2.1, SVG Export Plug-In . SVG Version: 6.00 Build 0)  -->
<svg version="1.1" id="Слой_1" xmlns="http://www.w3.org/2000/svg" xmlns:xlink="http://www.w3.org/1999/xlink" x="0px" y="0px"
	 viewBox="0 0 37 37" style="enable-background:new 0 0 37 37;" xml:space="preserve">
<style type="text/css">
	.st0{fill:#0759AA;}
</style>
<g>
	<path class="st0" d="M20.4,26.6c0.3,0.3,0.9,0.3,1.2,0c0.3-0.3,0.3-0.9,0-1.2l-6.9-6.9l6.9-6.9c0.3-0.3,0.3-0.9,0-1.2
		c-0.2-0.2-0.4-0.2-0.6-0.2s-0.4,0.1-0.6,0.2l-7.5,7.5c-0.3,0.3-0.3,0.9,0,1.2L20.4,26.6z"/>
	<path class="st0" d="M18.5,36C28,36,36,28,36,18.5S28,1,18.5,1S1,9,1,18.5S9,36,18.5,36z M18.5,2.7c8.6,0,15.8,7.3,15.8,15.8
		s-7.3,15.8-15.8,15.8S2.7,27.1,2.7,18.5S9.9,2.7,18.5,2.7z"/>
</g>
</svg>
