<?xml version="1.0" encoding="utf-8"?>
<!-- Generator: Adobe Illustrator 19.2.1, SVG Export Plug-In . SVG Version: 6.00 Build 0)  -->
<svg version="1.1" id="Слой_1" xmlns="http://www.w3.org/2000/svg" xmlns:xlink="http://www.w3.org/1999/xlink" x="0px" y="0px"
	 viewBox="0 0 45 45" style="enable-background:new 0 0 45 45;" xml:space="preserve">
<style type="text/css">
	.st0{fill:#B2C2D1;}
</style>
<g>
	<path class="st0" d="M31.3,28c-0.3,0-0.6-0.1-0.8-0.3l-8-8l-8,8c-0.4,0.4-1.1,0.4-1.5,0c-0.4-0.4-0.4-1.1,0-1.5l8.8-8.8
		c0.4-0.4,1.1-0.4,1.5,0l8.8,8.8c0.4,0.4,0.4,1.1,0,1.5C31.8,27.9,31.6,28,31.3,28z"/>
</g>
<g>
	<path class="st0" d="M22.5,44.5c-12.1,0-22-9.9-22-22s9.9-22,22-22c5,0,9.6,1.7,13.5,4.6c0.4,0.3,0.6,1.1,0.2,1.5
		c-0.3,0.4-1.1,0.6-1.5,0.2c-3.5-2.8-7.8-4.2-12.2-4.2c-10.9,0-19.8,8.9-19.8,19.8s8.9,19.8,19.8,19.8s19.8-8.9,19.8-19.8
		c0-3.5-1-7-2.8-10.1c-0.3-0.6-0.1-1.2,0.3-1.5c0.6-0.3,1.2-0.1,1.5,0.3c2,3.5,3.1,7.4,3.1,11.3C44.5,34.6,34.6,44.5,22.5,44.5z"/>
</g>
</svg>
