<?xml version="1.0" encoding="utf-8"?>
<!-- Generator: Adobe Illustrator 19.2.1, SVG Export Plug-In . SVG Version: 6.00 Build 0)  -->
<svg version="1.1" id="Слой_1" xmlns="http://www.w3.org/2000/svg" xmlns:xlink="http://www.w3.org/1999/xlink" x="0px" y="0px"
	 viewBox="0 0 37 37" style="enable-background:new 0 0 37 37;" xml:space="preserve">
<style type="text/css">
	.st0{fill:#0759AA;}
</style>
<g>
	<path class="st0" d="M16.6,10.4c-0.3-0.3-0.9-0.3-1.2,0s-0.3,0.9,0,1.2l6.9,6.9l-6.9,6.9c-0.3,0.3-0.3,0.9,0,1.2
		c0.2,0.2,0.4,0.2,0.6,0.2c0.2,0,0.4-0.1,0.6-0.2l7.5-7.5c0.3-0.3,0.3-0.9,0-1.2L16.6,10.4z"/>
	<path class="st0" d="M18.5,1C9,1,1,9,1,18.5S9,36,18.5,36S36,28,36,18.5S28,1,18.5,1z M18.5,34.3c-8.6,0-15.8-7.3-15.8-15.8
		S9.9,2.7,18.5,2.7s15.8,7.3,15.8,15.8S27.1,34.3,18.5,34.3z"/>
</g>
</svg>
