<?xml version="1.0" encoding="utf-8"?>
<!-- Generator: Adobe Illustrator 19.2.1, SVG Export Plug-In . SVG Version: 6.00 Build 0)  -->
<svg version="1.1" id="Слой_1" xmlns="http://www.w3.org/2000/svg" xmlns:xlink="http://www.w3.org/1999/xlink" x="0px" y="0px"
	 viewBox="0 0 45 45" style="enable-background:new 0 0 45 45;" xml:space="preserve">
<style type="text/css">
	.st0{fill:#0659aa;}
</style>
<g>
	<path class="st0" d="M0,3.2c1.6,0,3.3,0,4.9,0c1.8,0,3.1,1,3.5,2.8c0.5,2,1,4,1.3,6.1C10,12.8,10.3,13,11,13c5.3,0,10.6,0,16,0
		c0.8,0,1.1-0.4,1.4-1c1.8-3.7,5.9-5.6,9.8-4.7c4,0.9,6.9,4.4,6.9,8.5c0,4-2.7,7.7-6.7,8.5c-1.7,0.3-2.2,1-2.5,2.5
		c-0.4,2.2-2.3,3.7-4.6,3.7c-5.2,0.1-10.4,0.1-15.6,0c-2.3,0-4.1-1.6-4.6-3.9C9.6,20.2,8.2,13.8,6.8,7.4C6.3,5.3,6.1,5.1,4,5.1
		c-1.3,0-2.7,0-4-0.1C0,4.4,0,3.8,0,3.2z M10.5,14.9c0.1,0.4,0.1,0.7,0.2,1c0.7,3.3,1.5,6.6,2.2,10c0.4,1.9,1.3,2.6,3.3,2.7
		c4.8,0,9.5-0.1,14.3,0c2.2,0.1,3.8-1.1,3.7-4.1c-2.1-0.5-3.8-1.7-5.1-3.4c-1.3-1.8-1.8-3.9-1.7-6.1C21.7,14.9,16.2,14.9,10.5,14.9z
		 M36.1,22.6c3.9,0,6.9-2.9,6.9-6.8c0-3.8-3-6.8-6.7-6.8c-3.8,0-6.9,3-6.9,6.8C29.3,19.6,32.3,22.6,36.1,22.6z"/>
	<path class="st0" d="M19.5,37.4c0,2.7-2.2,4.8-4.9,4.8c-2.7,0-4.9-2.2-4.9-5c0-2.7,2.2-4.8,4.9-4.8C17.4,32.5,19.6,34.7,19.5,37.4z
		 M11.7,37.4c0,1.6,1.3,2.9,2.9,2.9c1.6,0,2.9-1.3,2.9-2.9c0-1.6-1.4-3-3-3C13,34.5,11.7,35.8,11.7,37.4z"/>
	<path class="st0" d="M37.1,37.3c0,2.7-2.2,5-4.9,4.9c-2.7,0-4.8-2.2-4.8-4.9c0-2.8,2.1-4.9,4.9-4.9C35,32.5,37.1,34.7,37.1,37.3z
		 M35.2,37.4c0-1.6-1.2-2.9-2.8-3c-1.6-0.1-3,1.3-3,2.9c0,1.6,1.3,2.9,2.9,2.9C33.9,40.3,35.2,39,35.2,37.4z"/>
	<path class="st0" d="M38.7,15.1c0.8,0.7,1.2,1.1,1.6,1.4c-1.4,1.4-2.7,2.7-3.9,3.9c-1.2-1.2-2.6-2.6-4-4c0.2-0.2,0.7-0.6,1.2-1
		c0.4,0.4,0.9,0.9,1.6,1.5c0-2.1,0-3.9,0-5.8c0.7,0,1.2,0,1.9,0c0,1.9,0,3.8,0,5.6c0.1,0,0.2,0.1,0.3,0.1
		C37.8,16.3,38.2,15.7,38.7,15.1z"/>
</g>
<circle class="st0" cx="36.3" cy="15.7" r="7.7"/>
</svg>
