<?xml version="1.0" encoding="utf-8"?>
<!-- Generator: Adobe Illustrator 19.2.1, SVG Export Plug-In . SVG Version: 6.00 Build 0)  -->
<svg version="1.1" id="Слой_1" xmlns="http://www.w3.org/2000/svg" xmlns:xlink="http://www.w3.org/1999/xlink" x="0px" y="0px"
	 viewBox="0 0 45 45" style="enable-background:new 0 0 45 45;" xml:space="preserve">
<style type="text/css">
	.st0{fill:#72B0EC;}
</style>
<g>
	<path class="st0" d="M43,12.6h-7.8l2.6-2.6c-3.5-3.5-8.1-5.4-13-5.4c-4.9,0-9.5,1.9-13,5.4c-3.5,3.5-5.4,8.1-5.4,13
		c0,1-0.8,1.8-1.8,1.8S2.9,24,2.9,23c0-5.9,2.3-11.4,6.4-15.6C13.5,3.3,19,1,24.9,1s11.4,2.3,15.6,6.4l0,0L43,4.9V12.6z"/>
	<path class="st0" d="M24.8,41.3c1,0,1.8,0.8,1.8,1.8c0,1-0.8,1.8-1.8,1.8c-1,0-1.8-0.8-1.8-1.8C23,42.2,23.8,41.3,24.8,41.3z"/>
	<path class="st0" d="M32.6,39.8c1,0,1.8,0.8,1.8,1.8c0,1-0.8,1.8-1.8,1.8c-1,0-1.8-0.8-1.8-1.8C30.7,40.6,31.5,39.8,32.6,39.8z"/>
	<path class="st0" d="M39.1,35.4c1,0,1.8,0.8,1.8,1.8c0,1-0.8,1.8-1.8,1.8c-1,0-1.8-0.8-1.8-1.8C37.3,36.2,38.1,35.4,39.1,35.4z"/>
	<path class="st0" d="M17.1,39.8c1,0,1.8,0.8,1.8,1.8s-0.8,1.8-1.8,1.8c-1,0-1.8-0.8-1.8-1.8S16.1,39.8,17.1,39.8z"/>
	<path class="st0" d="M10.6,35.4c1,0,1.8,0.8,1.8,1.8c0,1-0.8,1.8-1.8,1.8c-1,0-1.8-0.8-1.8-1.8C8.8,36.2,9.6,35.4,10.6,35.4z"/>
	<path class="st0" d="M6.2,28.9c1,0,1.8,0.8,1.8,1.8c0,1-0.8,1.8-1.8,1.8c-1,0-1.8-0.8-1.8-1.8C4.4,29.7,5.2,28.9,6.2,28.9z"/>
	<path class="st0" d="M35.9,27.4v0.4c0,1.6-0.6,3.2-1.8,4.3l0,0c-1.2,1.2-2.8,1.9-4.5,1.9l0,0c-1.1,0-2.3-0.3-3.2-0.9
		c-4.8-2.8-8.8-6.8-11.6-11.6c-0.6-1-0.9-2.1-0.9-3.2c0-1.7,0.7-3.3,1.9-4.5l0,0c1.1-1.1,2.7-1.8,4.3-1.8h0.4l2.2,5.9l-2.2,2.2
		c1.9,2.9,4.4,5.4,7.3,7.3l2.2-2.2L35.9,27.4z"/>
</g>
</svg>
