<?xml version="1.0" encoding="utf-8"?>
<!-- Generator: Adobe Illustrator 19.2.1, SVG Export Plug-In . SVG Version: 6.00 Build 0)  -->
<svg version="1.1" id="Слой_1" xmlns="http://www.w3.org/2000/svg" xmlns:xlink="http://www.w3.org/1999/xlink" x="0px" y="0px"
	 viewBox="0 0 45 45" style="enable-background:new 0 0 45 45;" xml:space="preserve">
<style type="text/css">
	.st0{fill:#72B0EC;}
</style>
<g>
	<path class="st0" d="M34.8,28.4c1.5-2.7,2.4-5.8,2.4-9.1C37.1,9.2,28.9,1,18.8,1S0.4,9.2,0.4,19.4s8.2,18.4,18.4,18.4
		c3.3,0,6.4-0.9,9.1-2.4l8.2,8.2c0.9,0.9,2.2,1.4,3.5,1.4c1.3,0,2.5-0.5,3.5-1.4c0.9-0.9,1.4-2.2,1.4-3.5s-0.5-2.5-1.4-3.5
		L34.8,28.4z M18.8,3.5c8.8,0,15.9,7.1,15.9,15.9s-7.1,15.9-15.9,15.9S2.8,28.2,2.8,19.4S10,3.5,18.8,3.5z M41.2,41.8
		c-0.5,0.5-1.1,0.7-1.7,0.7c-0.7,0-1.3-0.3-1.7-0.7L29.9,34c1.3-1,2.5-2.2,3.5-3.5l7.9,7.9c0.5,0.5,0.7,1.1,0.7,1.7
		C41.9,40.8,41.7,41.4,41.2,41.8z"/>
	<path class="st0" d="M18.8,32.9c7.4,0,13.5-6,13.5-13.5s-6-13.5-13.5-13.5s-13.5,6-13.5,13.5S11.3,32.9,18.8,32.9z M18.8,8.4
		c6.1,0,11,4.9,11,11s-4.9,11-11,11s-11-4.9-11-11S12.7,8.4,18.8,8.4z"/>
	<path class="st0" d="M11.4,20.6c0.7,0,1.2-0.5,1.2-1.2c0-3.4,2.7-6.1,6.1-6.1c0.7,0,1.2-0.5,1.2-1.2s-0.5-1.2-1.2-1.2
		c-4.7,0-8.6,3.8-8.6,8.6C10.2,20.1,10.7,20.6,11.4,20.6z"/>
</g>
</svg>
