<?xml version="1.0" encoding="utf-8"?>
<!-- Generator: Adobe Illustrator 19.2.1, SVG Export Plug-In . SVG Version: 6.00 Build 0)  -->
<svg version="1.1" id="Слой_1" xmlns="http://www.w3.org/2000/svg" xmlns:xlink="http://www.w3.org/1999/xlink" x="0px" y="0px"
	 viewBox="0 0 22 22" style="enable-background:new 0 0 22 22;" xml:space="preserve">
<style type="text/css">
	.st0{fill:#565656;}
</style>
<g>
	<path class="st0" d="M1,11C1,5.5,5.4,1,11,1c5.6,0,10,4.5,10,10c0,5.5-4.5,10-10,10C5.5,21,1,16.5,1,11z M11,2.1
		c-4.9,0-8.9,4-8.9,8.9c0,4.9,4,8.9,8.9,8.9c4.9,0,8.9-4,8.9-8.9C19.9,6.1,15.9,2.1,11,2.1z"/>
	<path class="st0" d="M11,17.7c-0.7,0-1.4,0-2.1,0c-2.2-0.1-2.6-1.2-2.4-2.9C7,12.5,8.8,11,11,11c2.2,0,4,1.5,4.4,3.7
		c0.1,0.4,0.1,0.9,0,1.3c-0.1,1-0.9,1.6-2.2,1.6C12.5,17.7,11.8,17.7,11,17.7C11,17.7,11,17.7,11,17.7z"/>
	<path class="st0" d="M8.2,7.1c0-1.5,1.3-2.7,2.8-2.7c1.5,0,2.7,1.3,2.7,2.8c0,1.5-1.3,2.7-2.8,2.7C9.4,9.9,8.2,8.6,8.2,7.1z"/>
</g>
</svg>
