<svg id="Слой_1" data-name="Слой 1" xmlns="http://www.w3.org/2000/svg" viewBox="0 0 64 64"><defs><style>.cls-1{fill:#fff}</style></defs><title>time</title><path class="cls-1" d="M64.5 45.58l-6.71-8.94H48V32.5h-6.77a21.67 21.67 0 1 0-30.41 8.14v18.7H15a6.18 6.18 0 0 0 12.2 0h21.89a6.18 6.18 0 0 0 12.2 0h3.21V45.58zM2.59 23.21h3.08v-2.06h-3A19.62 19.62 0 0 1 21.15 2.62v3h2.07v-3a19.62 19.62 0 0 1 18.53 18.53h-3v2.07h3.06a19.52 19.52 0 0 1-2.9 9.29h-28v5.67a19.46 19.46 0 0 1-8.32-14.97zm18.56 39.22a4.13 4.13 0 1 1 4.13-4.13 4.13 4.13 0 0 1-4.13 4.13zm24.77-5.17H27.25a6.18 6.18 0 0 0-12.2 0H12.9V34.57h33v22.7zM56.75 38.7l4.65 6.2H48v-6.2h8.77zm-1.54 23.73a4.13 4.13 0 1 1 4.13-4.13 4.13 4.13 0 0 1-4.13 4.13zm6.1-5.17a6.18 6.18 0 0 0-12.2 0H48V47h14.45v10.27h-1.14z" transform="translate(-.5 -.5)"/><path class="cls-1" d="M35.08 40.8a4.12 4.12 0 0 0 1-8.11V24.2H34v8.48a4.13 4.13 0 0 0-2.95 2.95h-5.3v2.07h5.3a4.1 4.1 0 0 0 4.03 3.1zm0-6.19A2.07 2.07 0 1 1 33 36.68a2.07 2.07 0 0 1 2.08-2.07z" transform="translate(-.5 -.5)"/><path class="cls-1" d="M30.97 30.97h2.07v2.07h-2.07z"/><path class="cls-1" d="M30.97 30.97h2.07v2.07h-2.07z"/><path class="cls-1" d="M30.97 30.97h2.07v2.07h-2.07z"/></svg>