<svg id="Слой_1" xmlns="http://www.w3.org/2000/svg" viewBox="0 0 65 65"><style>.st0{fill:#fff}</style><path class="st0" d="M56.6 14.3l6.5-6.5L55.8.5l-7.7 7.7C45.8 4.6 46.2.5 46.2.5H16c.8 9.4-8.3 15-14.1 14.1V20c0 17.2 11 39.1 28.9 44.4l.3.1.3-.1C49.2 59.1 60.3 37.2 60.3 20v-5.4s-2.4-.1-3.7-.3zm3.6-6.5L31.4 36.5 20.9 26l4.4-4.4 6.1 6.1L55.8 3.4l4.4 4.4zM52 18.9s.9 25.7-20.9 36.9c-12.3-5.1-20.3-21.5-20.9-34.2 5.9-2.2 10.6-6.9 12.8-12.8h16.2c.5 1.7 1.4 4 2.7 5.6L31.4 24.9l-6.1-6.1L18 26l13.4 13.4L52 18.9zm6.2 1.1c0 16.4-10.9 37.3-27.1 42.4C14.9 57.3 4 36.4 4 20v-3.4c7.5-.5 13.5-6.5 14-14h26.1c.2 2.6 1 5 2.4 7.2L43.3 13c-1.4-1.7-2.7-6.2-2.7-6.2H21.5c-.6 1.4-2.7 10.1-13.4 13.4v.8c.3 13.9 8.9 31.6 22.6 37l.4.2.4-.2c14-5.5 22.6-23.9 22.6-37.8V17l.8-.8c1.1.3 2.2.5 3.3.6V20z"/><path class="st0" d="M30.1 41.8h2.1v2.1h-2.1zM30.1 45.9h2.1V48h-2.1zM30.1 50h2.1v2.1h-2.1z"/></svg>