<svg id="Слой_1" data-name="Слой 1" xmlns="http://www.w3.org/2000/svg" viewBox="0 0 64.56 65"><defs><style>.cls-1{fill:#fff}</style></defs><title>money</title><path class="cls-1" d="M65.78 34.8h-3.12V20.22h-8.94L47.47 14h15.19v-2.11H45.39L33.5 0 21.61 11.89H6.43a5.22 5.22 0 0 0-5.21 5.21v42.7A5.22 5.22 0 0 0 6.43 65h51a5.22 5.22 0 0 0 5.21-5.21v-12.5h3.12V34.8zm-15-14.59H16.23L33.5 2.94zM6.43 14h13.1l-6.24 6.24H6.43a3.12 3.12 0 1 1 0-6.24zm54.14 45.79a3.13 3.13 0 0 1-3.12 3.12h-51a3.13 3.13 0 0 1-3.15-3.12V21.23a5.11 5.11 0 0 0 3.12 1.06h54.15V34.8H49.12a6.24 6.24 0 1 0 0 12.49h11.45v12.5zm3.13-14.57H49.12a4.17 4.17 0 0 1 0-8.34H63.7v8.34z" transform="translate(-1.22)"/><path class="cls-1" d="M46.86 40.01h2.09v2.09h-2.09z"/><path class="cls-1" transform="rotate(-44.99 36.206 13.536)" d="M35.76 11.03h2.09v2.09h-2.09z"/><path class="cls-1" transform="rotate(-45 39.148 16.484)" d="M38.71 13.97h2.09v2.09h-2.09z"/><path class="cls-1" transform="rotate(-45 42.087 19.427)" d="M41.65 16.92h2.09v2.09h-2.09z"/></svg>