<svg id="Слой_1" data-name="Слой 1" xmlns="http://www.w3.org/2000/svg" viewBox="0 0 43.36 64"><defs><style>.cls-1{fill:#fff}</style></defs><title>time1</title><path class="cls-1" d="M50 8.75h4.13V.5H10.82v8.25H15v14l15.6 9.75L15 42.25v14h-4.18v8.25h43.35v-8.25H50v-14L34.45 32.5 50 22.75v-14zM12.88 6.7V2.57h39.24V6.7H12.88zm39.24 51.6v4.13H12.88V58.3h39.24zM48 43.4v12.85H17V43.4l15.5-9.68zm0-21.8l-15.5 9.68L17 21.6V8.75h31V21.6z" transform="translate(-10.82 -.5)"/><path class="cls-1" d="M33.03 45.42h-2.06v5.16H12.4v-5.16h-2.07v7.23h22.7v-7.23zM20.65 12.38h2.07v2.07h-2.07zM24.78 12.38h2.07v2.07h-2.07zM16.52 12.38h2.07v2.07h-2.07z"/></svg>