<svg id="Слой_1" xmlns="http://www.w3.org/2000/svg" viewBox="0 0 45 45"><style>.st0{fill:#0659aa}</style><path class="st0" d="M31.3 28c-.3 0-.6-.1-.8-.3l-8-8-8 8c-.4.4-1.1.4-1.5 0-.4-.4-.4-1.1 0-1.5l8.8-8.8c.4-.4 1.1-.4 1.5 0l8.8 8.8c.4.4.4 1.1 0 1.5-.3.2-.5.3-.8.3z"/><path class="st0" d="M22.5 44.5c-12.1 0-22-9.9-22-22s9.9-22 22-22c5 0 9.6 1.7 13.5 4.6.4.3.6 1.1.2 1.5-.3.4-1.1.6-1.5.2-3.5-2.8-7.8-4.2-12.2-4.2-10.9 0-19.8 8.9-19.8 19.8s8.9 19.8 19.8 19.8 19.8-8.9 19.8-19.8c0-3.5-1-7-2.8-10.1-.3-.6-.1-1.2.3-1.5.6-.3 1.2-.1 1.5.3 2 3.5 3.1 7.4 3.1 11.3.1 12.2-9.8 22.1-21.9 22.1z"/></svg>