<svg id="Слой_1" xmlns="http://www.w3.org/2000/svg" viewBox="0 0 45 45"><style>.st0{fill:#0659aa}</style><path class="st0" d="M0 3.2h4.9c1.8 0 3.1 1 3.5 2.8.5 2 1 4 1.3 6.1.3.7.6.9 1.3.9h16c.8 0 1.1-.4 1.4-1 1.8-3.7 5.9-5.6 9.8-4.7 4 .9 6.9 4.4 6.9 8.5 0 4-2.7 7.7-6.7 8.5-1.7.3-2.2 1-2.5 2.5-.4 2.2-2.3 3.7-4.6 3.7-5.2.1-10.4.1-15.6 0-2.3 0-4.1-1.6-4.6-3.9-1.5-6.4-2.9-12.8-4.3-19.2-.5-2.1-.7-2.3-2.8-2.3-1.3 0-2.7 0-4-.1V3.2zm10.5 11.7c.1.4.1.7.2 1 .7 3.3 1.5 6.6 2.2 10 .4 1.9 1.3 2.6 3.3 2.7 4.8 0 9.5-.1 14.3 0 2.2.1 3.8-1.1 3.7-4.1-2.1-.5-3.8-1.7-5.1-3.4-1.3-1.8-1.8-3.9-1.7-6.1-5.7-.1-11.2-.1-16.9-.1zm25.6 7.7c3.9 0 6.9-2.9 6.9-6.8C43 12 40 9 36.3 9c-3.8 0-6.9 3-6.9 6.8-.1 3.8 2.9 6.8 6.7 6.8zM19.5 37.4c0 2.7-2.2 4.8-4.9 4.8s-4.9-2.2-4.9-5c0-2.7 2.2-4.8 4.9-4.8 2.8.1 5 2.3 4.9 5zm-7.8 0c0 1.6 1.3 2.9 2.9 2.9 1.6 0 2.9-1.3 2.9-2.9 0-1.6-1.4-3-3-3-1.5.1-2.8 1.4-2.8 3zM37.1 37.3c0 2.7-2.2 5-4.9 4.9-2.7 0-4.8-2.2-4.8-4.9 0-2.8 2.1-4.9 4.9-4.9 2.7.1 4.8 2.3 4.8 4.9zm-1.9.1c0-1.6-1.2-2.9-2.8-3-1.6-.1-3 1.3-3 2.9 0 1.6 1.3 2.9 2.9 2.9 1.6.1 2.9-1.2 2.9-2.8z"/><path class="st0" d="M38.7 15.1c.8.7 1.2 1.1 1.6 1.4l-3.9 3.9-4-4c.2-.2.7-.6 1.2-1 .4.4.9.9 1.6 1.5v-5.8h1.9v5.6c.1 0 .2.1.3.1.4-.5.8-1.1 1.3-1.7z"/></svg>