<svg id="Слой_1" xmlns="http://www.w3.org/2000/svg" viewBox="0 0 45 45"><style>.st0{fill:#72b0ec}</style><path class="st0" d="M43 12.6h-7.8l2.6-2.6c-3.5-3.5-8.1-5.4-13-5.4s-9.5 1.9-13 5.4c-3.5 3.5-5.4 8.1-5.4 13 0 1-.8 1.8-1.8 1.8S2.9 24 2.9 23c0-5.9 2.3-11.4 6.4-15.6C13.5 3.3 19 1 24.9 1s11.4 2.3 15.6 6.4L43 4.9v7.7zM24.8 41.3c1 0 1.8.8 1.8 1.8s-.8 1.8-1.8 1.8-1.8-.8-1.8-1.8c0-.9.8-1.8 1.8-1.8zM32.6 39.8c1 0 1.8.8 1.8 1.8s-.8 1.8-1.8 1.8-1.8-.8-1.8-1.8c-.1-1 .7-1.8 1.8-1.8zM39.1 35.4c1 0 1.8.8 1.8 1.8s-.8 1.8-1.8 1.8-1.8-.8-1.8-1.8.8-1.8 1.8-1.8zM17.1 39.8c1 0 1.8.8 1.8 1.8s-.8 1.8-1.8 1.8-1.8-.8-1.8-1.8.8-1.8 1.8-1.8zM10.6 35.4c1 0 1.8.8 1.8 1.8s-.8 1.8-1.8 1.8-1.8-.8-1.8-1.8.8-1.8 1.8-1.8zM6.2 28.9c1 0 1.8.8 1.8 1.8s-.8 1.8-1.8 1.8-1.8-.8-1.8-1.8.8-1.8 1.8-1.8z"/><path class="st0" d="M35.9 27.4v.4c0 1.6-.6 3.2-1.8 4.3-1.2 1.2-2.8 1.9-4.5 1.9-1.1 0-2.3-.3-3.2-.9-4.8-2.8-8.8-6.8-11.6-11.6-.6-1-.9-2.1-.9-3.2 0-1.7.7-3.3 1.9-4.5 1.1-1.1 2.7-1.8 4.3-1.8h.4l2.2 5.9-2.2 2.2c1.9 2.9 4.4 5.4 7.3 7.3l2.2-2.2 5.9 2.2z"/></svg>