<svg id="Слой_1" xmlns="http://www.w3.org/2000/svg" viewBox="0 0 45 45"><style>.st0{fill:#72b0ec}</style><path class="st0" d="M34.8 28.4c1.5-2.7 2.4-5.8 2.4-9.1C37.1 9.2 28.9 1 18.8 1S.4 9.2.4 19.4s8.2 18.4 18.4 18.4c3.3 0 6.4-.9 9.1-2.4l8.2 8.2c.9.9 2.2 1.4 3.5 1.4 1.3 0 2.5-.5 3.5-1.4.9-.9 1.4-2.2 1.4-3.5s-.5-2.5-1.4-3.5l-8.3-8.2zm-16-24.9c8.8 0 15.9 7.1 15.9 15.9s-7.1 15.9-15.9 15.9-16-7.1-16-15.9S10 3.5 18.8 3.5zm22.4 38.3c-.5.5-1.1.7-1.7.7-.7 0-1.3-.3-1.7-.7L29.9 34c1.3-1 2.5-2.2 3.5-3.5l7.9 7.9c.5.5.7 1.1.7 1.7-.1.7-.3 1.3-.8 1.7z"/><path class="st0" d="M18.8 32.9c7.4 0 13.5-6 13.5-13.5s-6-13.5-13.5-13.5-13.5 6-13.5 13.5 6 13.5 13.5 13.5zm0-24.5c6.1 0 11 4.9 11 11s-4.9 11-11 11-11-4.9-11-11 4.9-11 11-11z"/><path class="st0" d="M11.4 20.6c.7 0 1.2-.5 1.2-1.2 0-3.4 2.7-6.1 6.1-6.1.7 0 1.2-.5 1.2-1.2s-.5-1.2-1.2-1.2c-4.7 0-8.6 3.8-8.6 8.6.1.6.6 1.1 1.3 1.1z"/></svg>