<svg id="Слой_1" xmlns="http://www.w3.org/2000/svg" viewBox="0 0 22 22"><style>.st0{fill:#565656}</style><path class="st0" d="M1 11C1 5.5 5.4 1 11 1s10 4.5 10 10-4.5 10-10 10S1 16.5 1 11zm10-8.9c-4.9 0-8.9 4-8.9 8.9s4 8.9 8.9 8.9 8.9-4 8.9-8.9-4-8.9-8.9-8.9z"/><path class="st0" d="M11 17.7H8.9c-2.2-.1-2.6-1.2-2.4-2.9C7 12.5 8.8 11 11 11s4 1.5 4.4 3.7c.1.4.1.9 0 1.3-.1 1-.9 1.6-2.2 1.6-.7.1-1.4.1-2.2.1zM8.2 7.1c0-1.5 1.3-2.7 2.8-2.7 1.5 0 2.7 1.3 2.7 2.8 0 1.5-1.3 2.7-2.8 2.7-1.5 0-2.7-1.3-2.7-2.8z"/></svg>