<svg id="Слой_1" data-name="Слой 1" xmlns="http://www.w3.org/2000/svg" viewBox="0 0 64 64"><defs><style>.cls-1{fill:#fff;}</style></defs><title>time</title><path class="cls-1" d="M64.5,45.58l-6.71-8.94H48V32.5H41.23a21.67,21.67,0,1,0-30.41,8.14v18.7H15a6.18,6.18,0,0,0,12.2,0H49.09a6.18,6.18,0,0,0,12.2,0H64.5V45.58ZM2.59,23.21H5.67V21.15h-3A19.62,19.62,0,0,1,21.15,2.62v3h2.07v-3A19.62,19.62,0,0,1,41.75,21.15h-3v2.07h3.06a19.52,19.52,0,0,1-2.9,9.29h-28v5.67A19.46,19.46,0,0,1,2.59,23.21ZM21.15,62.43a4.13,4.13,0,1,1,4.13-4.13A4.13,4.13,0,0,1,21.15,62.43Zm24.77-5.17H27.25a6.18,6.18,0,0,0-12.2,0H12.9V34.57h33v22.7h0ZM56.75,38.7l4.65,6.2H48V38.7h8.77ZM55.21,62.43a4.13,4.13,0,1,1,4.13-4.13A4.13,4.13,0,0,1,55.21,62.43Zm6.1-5.17a6.18,6.18,0,0,0-12.2,0H48V47H62.45V57.27H61.31Z" transform="translate(-0.5 -0.5)"/><path class="cls-1" d="M35.08,40.8a4.12,4.12,0,0,0,1-8.11V24.2H34v8.48a4.13,4.13,0,0,0-2.95,2.95h-5.3V37.7h5.3A4.1,4.1,0,0,0,35.08,40.8Zm0-6.19A2.07,2.07,0,1,1,33,36.68,2.07,2.07,0,0,1,35.08,34.61Z" transform="translate(-0.5 -0.5)"/><rect class="cls-1" x="30.97" y="30.97" width="2.07" height="2.07"/><rect class="cls-1" x="30.97" y="30.97" width="2.07" height="2.07"/><rect class="cls-1" x="30.97" y="30.97" width="2.07" height="2.07"/></svg>