<?xml version="1.0" encoding="utf-8"?>
<!-- Generator: Adobe Illustrator 19.2.1, SVG Export Plug-In . SVG Version: 6.00 Build 0)  -->
<svg version="1.1" id="Слой_1" xmlns="http://www.w3.org/2000/svg" xmlns:xlink="http://www.w3.org/1999/xlink" x="0px" y="0px"
	 viewBox="0 0 65 65" style="enable-background:new 0 0 65 65;" xml:space="preserve">
<style type="text/css">
	.st0{fill:#FFFFFF;}
</style>
<g>
	<path class="st0" d="M56.6,14.3l6.5-6.5l-7.3-7.3l-7.7,7.7c-2.3-3.6-1.9-7.7-1.9-7.7H16c0.8,9.4-8.3,15-14.1,14.1V20
		c0,17.2,11,39.1,28.9,44.4l0.3,0.1l0.3-0.1C49.2,59.1,60.3,37.2,60.3,20v-5.4C60.3,14.6,57.9,14.5,56.6,14.3z M60.2,7.8L31.4,36.5
		L20.9,26l4.4-4.4l6.1,6.1L55.8,3.4L60.2,7.8z M52,18.9c0,0,0.9,25.7-20.9,36.9c-12.3-5.1-20.3-21.5-20.9-34.2
		c5.9-2.2,10.6-6.9,12.8-12.8h16.2c0.5,1.7,1.4,4,2.7,5.6L31.4,24.9l-6.1-6.1L18,26l13.4,13.4L52,18.9z M58.2,20
		c0,16.4-10.9,37.3-27.1,42.4C14.9,57.3,4,36.4,4,20v-3.4c7.5-0.5,13.5-6.5,14-14h26.1c0.2,2.6,1,5,2.4,7.2l-3.2,3.2
		c-1.4-1.7-2.7-6.2-2.7-6.2H21.5c-0.6,1.4-2.7,10.1-13.4,13.4l0,0.8c0.3,13.9,8.9,31.6,22.6,37l0.4,0.2l0.4-0.2
		c14-5.5,22.6-23.9,22.6-37.8v-3.2l0.8-0.8l0,0c1.1,0.3,2.2,0.5,3.3,0.6L58.2,20L58.2,20z"/>
	<rect x="30.1" y="41.8" class="st0" width="2.1" height="2.1"/>
	<rect x="30.1" y="45.9" class="st0" width="2.1" height="2.1"/>
	<rect x="30.1" y="50" class="st0" width="2.1" height="2.1"/>
</g>
</svg>
