<svg id="Слой_1" data-name="Слой 1" xmlns="http://www.w3.org/2000/svg" viewBox="0 0 64.56 65"><defs><style>.cls-1{fill:#fff;}</style></defs><title>money</title><path class="cls-1" d="M65.78,34.8H62.66V20.22H53.72L47.47,14H62.66V11.89H45.39L33.5,0,21.61,11.89H6.43a5.22,5.22,0,0,0-5.21,5.21v42.7A5.22,5.22,0,0,0,6.43,65h51a5.22,5.22,0,0,0,5.21-5.21V47.29h3.12V34.8Zm-15-14.59H16.23L33.5,2.94ZM6.43,14h13.1l-6.24,6.24H6.43A3.12,3.12,0,1,1,6.43,14ZM60.57,59.79a3.13,3.13,0,0,1-3.12,3.12h-51A3.13,3.13,0,0,1,3.3,59.79V21.23a5.11,5.11,0,0,0,3.12,1.06H60.57V34.8H49.12a6.24,6.24,0,1,0,0,12.49H60.57v12.5ZM63.7,45.22H49.12a4.17,4.17,0,0,1,0-8.34H63.7v8.34Z" transform="translate(-1.22)"/><rect class="cls-1" x="46.86" y="40.01" width="2.09" height="2.09"/><rect class="cls-1" x="35.76" y="11.03" width="2.09" height="2.09" transform="translate(1.03 29.56) rotate(-44.99)"/><rect class="cls-1" x="38.71" y="13.97" width="2.09" height="2.09" transform="translate(-0.19 32.51) rotate(-45)"/><rect class="cls-1" x="41.65" y="16.92" width="2.09" height="2.09" transform="translate(-1.41 35.45) rotate(-45)"/></svg>