<svg id="Слой_1" data-name="Слой 1" xmlns="http://www.w3.org/2000/svg" viewBox="0 0 43.36 64"><defs><style>.cls-1{fill:#fff;}</style></defs><title>time1</title><path class="cls-1" d="M50,8.75h4.13V0.5H10.82V8.75H15v14l15.6,9.75L15,42.25v14H10.82V64.5H54.17V56.25H50v-14L34.45,32.5,50,22.75v-14ZM12.88,6.7V2.57H52.12V6.7H12.88ZM52.12,58.3v4.13H12.88V58.3H52.12ZM48,43.4V56.25H17V43.4L32.5,33.72Zm0-21.8L32.5,31.28,17,21.6V8.75H48V21.6h0Z" transform="translate(-10.82 -0.5)"/><polygon class="cls-1" points="33.03 45.42 30.97 45.42 30.97 50.58 12.4 50.58 12.4 45.42 10.33 45.42 10.33 52.65 33.03 52.65 33.03 45.42"/><rect class="cls-1" x="20.65" y="12.38" width="2.07" height="2.07"/><rect class="cls-1" x="24.78" y="12.38" width="2.07" height="2.07"/><rect class="cls-1" x="16.52" y="12.38" width="2.07" height="2.07"/></svg>